<svg width="31" height="30" viewBox="0 0 31 30" fill="none" xmlns="http://www.w3.org/2000/svg">
<g clip-path="url(#clip0)">
<path fill-rule="evenodd" clip-rule="evenodd" d="M15.6592 0C7.49125 0 0.86377 6.7191 0.86377 15C0.86377 23.2809 7.49125 30 15.6592 30C23.8112 30 30.4547 23.2809 30.4547 15C30.4547 6.7191 23.8112 0 15.6592 0ZM25.4319 6.91431C27.1971 9.09435 28.2562 11.8764 28.2883 14.8861C27.8711 14.8048 23.6988 13.9425 19.4945 14.4794C19.3982 14.2679 19.318 14.0401 19.2217 13.8124C18.9649 13.1941 18.6761 12.5597 18.3872 11.9577C23.0409 10.038 25.1591 7.27224 25.4319 6.91431ZM15.6592 2.21258C18.8687 2.21258 21.8053 3.43275 24.0358 5.43384C23.8112 5.75922 21.9015 8.346 17.4084 10.0542C15.3383 6.19848 13.0435 3.0423 12.6905 2.55423C13.6373 2.32646 14.6322 2.21258 15.6592 2.21258ZM10.2834 3.41649C10.6204 3.87201 12.867 7.04448 14.9692 10.8189C9.06385 12.4132 3.84855 12.3807 3.28689 12.3807C4.10528 8.41107 6.75307 5.10846 10.2834 3.41649ZM3.01408 15.0163C3.01408 14.8861 3.01408 14.756 3.01408 14.6258C3.55969 14.6421 9.6897 14.7234 15.9962 12.8037C16.3653 13.5195 16.7023 14.2516 17.0232 14.9837C16.8627 15.0326 16.6862 15.0814 16.5258 15.1301C10.0106 17.2614 6.54446 23.0857 6.25562 23.5738C4.24971 21.3124 3.01408 18.3026 3.01408 15.0163ZM15.6592 27.82C12.7387 27.82 10.0427 26.8113 7.90845 25.1193C8.13313 24.6475 10.7007 19.6367 17.8256 17.115C17.8577 17.0987 17.8737 17.0987 17.9058 17.0824C19.6871 21.7516 20.4092 25.6724 20.6017 26.795C19.0773 27.462 17.4084 27.82 15.6592 27.82ZM22.7039 25.6237C22.5755 24.8427 21.9016 21.1009 20.2487 16.4968C24.2124 15.8623 27.6785 16.9035 28.1118 17.0499C27.5662 20.6128 25.5442 23.6876 22.7039 25.6237Z" fill="white"/>
</g>
<defs>
<clipPath id="clip0">
<rect width="29.5909" height="30" fill="white" transform="translate(0.86377)"/>
</clipPath>
</defs>
</svg>
