<svg width="30" height="30" viewBox="0 0 30 30" fill="none" xmlns="http://www.w3.org/2000/svg">
<path d="M21.0781 0H8.03372C3.60393 0 0 3.71402 0 8.27892V21.7211C0 26.2862 3.60393 30 8.03372 30H21.0781C25.5082 30 29.1121 26.286 29.1121 21.7211V8.27892C29.1123 3.71402 25.5082 0 21.0781 0ZM26.5293 21.7211C26.5293 24.8185 24.0839 27.3383 21.0782 27.3383H8.03372C5.02818 27.3384 2.58297 24.8185 2.58297 21.7211V8.27892C2.58297 5.18171 5.02818 2.66175 8.03372 2.66175H21.0781C24.0838 2.66175 26.5292 5.18171 26.5292 8.27892V21.7211H26.5293Z" fill="white"/>
<path d="M14.5561 7.27051C10.4198 7.27051 7.05469 10.7382 7.05469 15.0006C7.05469 19.2628 10.4198 22.7303 14.5561 22.7303C18.6924 22.7303 22.0575 19.2628 22.0575 15.0006C22.0575 10.7382 18.6924 7.27051 14.5561 7.27051ZM14.5561 20.0684C11.8442 20.0684 9.63764 17.795 9.63764 15.0004C9.63764 12.2056 11.844 9.93202 14.5561 9.93202C17.2682 9.93202 19.4745 12.2056 19.4745 15.0004C19.4745 17.795 17.268 20.0684 14.5561 20.0684Z" fill="white"/>
<path d="M22.3723 5.0127C21.8746 5.0127 21.3857 5.22038 21.0342 5.58427C20.6811 5.94639 20.478 6.45051 20.478 6.96528C20.478 7.47845 20.6812 7.9824 21.0342 8.34629C21.3855 8.7084 21.8746 8.91786 22.3723 8.91786C22.8716 8.91786 23.359 8.7084 23.712 8.34629C24.065 7.9824 24.2665 7.47827 24.2665 6.96528C24.2665 6.45051 24.065 5.94639 23.712 5.58427C23.3607 5.22038 22.8716 5.0127 22.3723 5.0127Z" fill="white"/>
</svg>
