<svg width="1440" height="369" viewBox="0 0 1440 369" fill="none" xmlns="http://www.w3.org/2000/svg">
<path d="M25.1698 160.027H0V369H464V256.476H445.741V173.552H409.283V227.303H401.075V195.749H349.641V144.547H323.377V130.854H288.358V88.5829H256.075V259.453H248.962V96.918H199.717V124.9H182.208V53.4563H155.396V124.9H101.226V35H60.7358V59.41H36.6604V70.1266H25.1698V160.027Z" fill="#5976D8"/>
<path d="M581.434 270.144H558V369H990V315.77H973V276.543H939.057V301.97H931.415V287.043H883.528V262.822H859.075V256.344H826.472V236.348H796.415V317.178H789.792V240.291H743.943V253.528H727.641V219.731H702.679V253.528H652.245V211H614.547V222.547H592.132V227.617H581.434V270.144Z" fill="#5976D8"/>
<path d="M21.5 164H0V369H437V279.5H427V256H417V279.5H382.5V256H359V237H307V183H284.5V237H220.5V164H194.5V154H180V125H156.5V164H133.5V97.5H109.5V130.5H79.5V116L51.5 101.5H36V210H21.5V164Z" fill="#3553B5"/>
<path d="M456.106 268.576H435V369H864V325.157H854.183V313.645H844.366V325.157H810.498V313.645H787.428V304.337H736.38V277.884H714.292L671 312H651.463V268.576H625.939V263.678H611.705V249.471H588.635V268.576H566.056V236H542.495V252.166H513.045V237.959H485.557H470.341V291.11H456.106V268.576Z" fill="#3553B5"/>
<path d="M1412.39 138.128H1440V369H931V244.685H951.03V153.071H991.024V212.455H1000.03V177.594H1056.45V121.027H1085.26V105.898H1123.68V59.1979H1159.09V247.973H1166.89V68.4064H1220.91V99.3209H1240.12V20.3904H1269.53V99.3209H1328.96V0H1373.37V26.9679H1399.78V38.8075H1412.39V138.128Z" fill="#5976D8"/>
<path d="M1417.22 136.44H1440V369H977V267.468H987.595H990.5H994.5H998.19H1034.74V240.808H1059.64V219.254H1114.73V157.994H1138.57V219.254H1206.38V136.44H1233.93V125.096H1249.29V92.1971H1274.19V136.44H1298.56V61H1323.99V98.4365H1355.77V81.9871L1385.44 65.5378H1401.86V188.624H1417.22V136.44Z" fill="#3553B5"/>
<rect x="47" y="139" width="72" height="128" fill="#253F96"/>
<rect x="119" y="139" width="17" height="128" fill="#071C63"/>
<rect x="126" y="146" width="1" height="121" fill="#4664CA"/>
<rect x="129" y="146" width="1" height="121" fill="#4664CA"/>
<rect x="64" y="159" width="6" height="6" fill="#4664CA"/>
<rect x="74" y="159" width="7" height="6" fill="#4664CA"/>
<rect x="85" y="159" width="6" height="6" fill="#4664CA"/>
<rect x="96" y="159" width="6" height="6" fill="#4664CA"/>
<rect x="107" y="159" width="6" height="6" fill="#4664CA"/>
<rect x="64" y="168" width="6" height="6" fill="#4664CA"/>
<rect x="74" y="168" width="7" height="6" fill="#4664CA"/>
<rect x="85" y="168" width="6" height="6" fill="#4664CA"/>
<rect x="96" y="168" width="6" height="6" fill="#4664CA"/>
<rect x="107" y="168" width="6" height="6" fill="#4664CA"/>
<rect x="64" y="178" width="6" height="6" fill="#4664CA"/>
<rect x="74" y="178" width="7" height="6" fill="#4664CA"/>
<rect x="85" y="178" width="6" height="6" fill="#4664CA"/>
<rect x="96" y="178" width="6" height="6" fill="#4664CA"/>
<rect x="107" y="178" width="6" height="6" fill="#4664CA"/>
<rect x="64" y="188" width="6" height="6" fill="#4664CA"/>
<rect x="53" y="159" width="6" height="6" fill="#4664CA"/>
<rect x="53" y="168" width="6" height="6" fill="#4664CA"/>
<rect x="53" y="178" width="6" height="6" fill="#4664CA"/>
<rect x="53" y="188" width="6" height="6" fill="#4664CA"/>
<rect x="74" y="188" width="7" height="6" fill="#4664CA"/>
<rect x="85" y="188" width="6" height="6" fill="#4664CA"/>
<rect x="96" y="188" width="6" height="6" fill="#4664CA"/>
<rect x="107" y="188" width="6" height="6" fill="#4664CA"/>
<rect x="1240" y="132" width="72" height="173" fill="#253F96"/>
<rect x="1312" y="132" width="17" height="171" fill="#071C63"/>
<rect x="1319" y="139" width="1" height="151" fill="#4664CA"/>
<rect x="1322" y="139" width="1" height="151" fill="#4664CA"/>
<rect x="1257" y="152" width="6" height="6" fill="#4664CA"/>
<rect x="1267" y="152" width="7" height="6" fill="#4664CA"/>
<rect x="1278" y="152" width="6" height="6" fill="#4664CA"/>
<rect x="1289" y="152" width="6" height="6" fill="#4664CA"/>
<rect x="1300" y="152" width="6" height="6" fill="#4664CA"/>
<rect x="1257" y="161" width="6" height="6" fill="#4664CA"/>
<rect x="1267" y="161" width="7" height="6" fill="#4664CA"/>
<rect x="1278" y="161" width="6" height="6" fill="#4664CA"/>
<rect x="1289" y="161" width="6" height="6" fill="#4664CA"/>
<rect x="1300" y="161" width="6" height="6" fill="#4664CA"/>
<rect x="1257" y="171" width="6" height="6" fill="#4664CA"/>
<rect x="1267" y="171" width="7" height="6" fill="#4664CA"/>
<rect x="1278" y="171" width="6" height="6" fill="#4664CA"/>
<rect x="1289" y="171" width="6" height="6" fill="#4664CA"/>
<rect x="1300" y="171" width="6" height="6" fill="#4664CA"/>
<rect x="1257" y="181" width="6" height="6" fill="#4664CA"/>
<rect x="1246" y="152" width="6" height="6" fill="#4664CA"/>
<rect x="1246" y="161" width="6" height="6" fill="#4664CA"/>
<rect x="1246" y="171" width="6" height="6" fill="#4664CA"/>
<rect x="1246" y="181" width="6" height="6" fill="#4664CA"/>
<rect x="1267" y="181" width="7" height="6" fill="#4664CA"/>
<rect x="1278" y="181" width="6" height="6" fill="#4664CA"/>
<rect x="1289" y="181" width="6" height="6" fill="#4664CA"/>
<rect x="1300" y="181" width="6" height="6" fill="#4664CA"/>
<rect y="237" width="80" height="132" fill="#4664CA"/>
<rect x="79" y="237" width="22" height="132" fill="#11266D"/>
<rect x="101" y="204" width="85" height="165" fill="#4664CA"/>
<rect x="244" y="200" width="82" height="169" fill="#253F96"/>
<rect x="326" y="200" width="24" height="169" fill="#071C63"/>
<rect x="350" y="313" width="62" height="56" fill="#183082"/>
<path d="M412 313.603L427 284L442 313.31V369H412V313.603Z" fill="#071C63"/>
<path d="M365.109 284H427L412.181 313H350L365.109 284Z" fill="#4664CA"/>
<rect x="120" y="177" width="52" height="28" fill="#4664CA"/>
<rect x="171" y="177" width="24" height="28" fill="#11266D"/>
<rect x="184" y="204" width="23" height="165" fill="#11266D"/>
<path d="M207 284H327V369H207V284Z" fill="#4664CA"/>
<rect x="217" y="295" width="100" height="5" fill="#D1DBED"/>
<rect x="217" y="306" width="100" height="5" fill="#D1DBED"/>
<rect x="217" y="317" width="100" height="5" fill="#D1DBED"/>
<rect x="217" y="327" width="100" height="5" fill="#D1DBED"/>
<rect x="108" y="213" width="9" height="9" fill="#D1DBED"/>
<rect x="108" y="213" width="9" height="9" fill="#D1DBED"/>
<rect x="253" y="213" width="8" height="8" fill="#4664CA"/>
<rect x="267" y="213" width="8" height="8" fill="#4664CA"/>
<rect x="281" y="213" width="8" height="8" fill="#4664CA"/>
<rect x="295" y="213" width="8" height="8" fill="#4664CA"/>
<rect x="1341" y="151" width="82" height="169" fill="#253F96"/>
<rect x="1423" y="151" width="17" height="169" fill="#071C63"/>
<rect x="1350" y="164" width="8" height="8" fill="#4664CA"/>
<rect x="1364" y="164" width="8" height="8" fill="#4664CA"/>
<rect x="1378" y="164" width="8" height="8" fill="#4664CA"/>
<rect x="1392" y="164" width="8" height="8" fill="#4664CA"/>
<rect x="1406" y="164" width="8" height="8" fill="#4664CA"/>
<rect x="309" y="213" width="8" height="8" fill="#4664CA"/>
<rect x="108" y="230" width="9" height="9" fill="#F1D399"/>
<rect x="108" y="247" width="9" height="9" fill="#D1DBED"/>
<rect x="108" y="281" width="9" height="9" fill="#D1DBED"/>
<rect x="108" y="264" width="9" height="9" fill="#D1DBED"/>
<rect x="108" y="298" width="9" height="9" fill="#D1DBED"/>
<rect x="108" y="315" width="9" height="9" fill="#D1DBED"/>
<rect x="108" y="332" width="9" height="9" fill="#F1D399"/>
<rect x="108" y="349" width="9" height="9" fill="#D1DBED"/>
<rect x="122" y="213" width="9" height="9" fill="#D1DBED"/>
<rect x="122" y="213" width="9" height="9" fill="#D1DBED"/>
<rect x="122" y="230" width="9" height="9" fill="#D1DBED"/>
<rect x="122" y="247" width="9" height="9" fill="#D1DBED"/>
<rect x="122" y="281" width="9" height="9" fill="#F1D399"/>
<rect x="122" y="264" width="9" height="9" fill="#D1DBED"/>
<rect x="122" y="298" width="9" height="9" fill="#F1D399"/>
<rect x="122" y="315" width="9" height="9" fill="#D1DBED"/>
<rect x="122" y="332" width="9" height="9" fill="#D1DBED"/>
<rect x="122" y="349" width="9" height="9" fill="#D1DBED"/>
<rect x="136" y="213" width="9" height="9" fill="#D1DBED"/>
<rect x="136" y="213" width="9" height="9" fill="#D1DBED"/>
<rect x="136" y="230" width="9" height="9" fill="#D1DBED"/>
<rect x="136" y="247" width="9" height="9" fill="#F1D399"/>
<rect x="136" y="281" width="9" height="9" fill="#D1DBED"/>
<rect x="136" y="264" width="9" height="9" fill="#D1DBED"/>
<rect x="136" y="298" width="9" height="9" fill="#D1DBED"/>
<rect x="136" y="315" width="9" height="9" fill="#F1D399"/>
<rect x="136" y="332" width="9" height="9" fill="#D1DBED"/>
<rect x="136" y="349" width="9" height="9" fill="#D1DBED"/>
<rect x="150" y="213" width="9" height="9" fill="#D1DBED"/>
<rect x="150" y="213" width="9" height="9" fill="#D1DBED"/>
<rect x="150" y="230" width="9" height="9" fill="#D1DBED"/>
<rect x="150" y="247" width="9" height="9" fill="#D1DBED"/>
<rect x="150" y="281" width="9" height="9" fill="#F1D399"/>
<rect x="150" y="264" width="9" height="9" fill="#D1DBED"/>
<rect x="150" y="298" width="9" height="9" fill="#D1DBED"/>
<rect x="150" y="315" width="9" height="9" fill="#D1DBED"/>
<rect x="150" y="332" width="9" height="9" fill="#D1DBED"/>
<rect x="150" y="349" width="9" height="9" fill="#D1DBED"/>
<rect x="164" y="213" width="9" height="9" fill="#D1DBED"/>
<rect x="164" y="213" width="9" height="9" fill="#F1D399"/>
<rect x="164" y="230" width="9" height="9" fill="#F1D399"/>
<rect x="164" y="247" width="9" height="9" fill="#D1DBED"/>
<rect x="164" y="281" width="9" height="9" fill="#D1DBED"/>
<rect x="164" y="264" width="9" height="9" fill="#D1DBED"/>
<rect x="164" y="298" width="9" height="9" fill="#D1DBED"/>
<rect x="164" y="315" width="9" height="9" fill="#D1DBED"/>
<rect x="164" y="332" width="9" height="9" fill="#F1D399"/>
<rect x="164" y="349" width="9" height="9" fill="#F1D399"/>
<rect x="1069" y="176" width="85" height="165" fill="#263F96"/>
<rect x="1088" y="149" width="52" height="28" fill="#263F96"/>
<rect x="1139" y="149" width="24" height="28" fill="#071C63"/>
<rect x="1152" y="176" width="23" height="165" fill="#071C63"/>
<rect x="1090" y="185" width="9" height="9" fill="#EEB8B8"/>
<rect x="1090" y="185" width="9" height="9" fill="#D1DBED"/>
<rect x="1090" y="202" width="9" height="9" fill="#D1DBED"/>
<rect x="1090" y="219" width="9" height="9" fill="#D1DBED"/>
<rect x="1090" y="253" width="9" height="9" fill="#F1D399"/>
<rect x="1090" y="236" width="9" height="9" fill="#D1DBED"/>
<rect x="1090" y="270" width="9" height="9" fill="#D1DBED"/>
<rect x="1090" y="287" width="9" height="9" fill="#D1DBED"/>
<rect x="1090" y="304" width="9" height="9" fill="#EEB8B8"/>
<rect x="1090" y="321" width="9" height="9" fill="#EEB8B8"/>
<rect x="1104" y="185" width="9" height="9" fill="#EEB8B8"/>
<rect x="1104" y="185" width="9" height="9" fill="#D1DBED"/>
<rect x="1104" y="202" width="9" height="9" fill="#F1D399"/>
<rect x="1104" y="219" width="9" height="9" fill="#D1DBED"/>
<rect x="1104" y="253" width="9" height="9" fill="#D1DBED"/>
<rect x="1104" y="236" width="9" height="9" fill="#F1D399"/>
<rect x="1104" y="270" width="9" height="9" fill="#D1DBED"/>
<rect x="1104" y="287" width="9" height="9" fill="#D1DBED"/>
<rect x="1104" y="304" width="9" height="9" fill="#EEB8B8"/>
<rect x="1104" y="321" width="9" height="9" fill="#EEB8B8"/>
<rect x="1118" y="185" width="9" height="9" fill="#F1D399"/>
<rect x="1118" y="202" width="9" height="9" fill="#D1DBED"/>
<rect x="1118" y="219" width="9" height="9" fill="#D1DBED"/>
<rect x="1118" y="253" width="9" height="9" fill="#F1D399"/>
<rect x="1118" y="236" width="9" height="9" fill="#D1DBED"/>
<rect x="1118" y="270" width="9" height="9" fill="#D1DBED"/>
<rect x="1118" y="287" width="9" height="9" fill="#D1DBED"/>
<rect x="1118" y="304" width="9" height="9" fill="#EEB8B8"/>
<rect x="1118" y="321" width="9" height="9" fill="#EEB8B8"/>
<rect x="1132" y="185" width="9" height="9" fill="#F1D399"/>
<rect x="1132" y="202" width="9" height="9" fill="#D1DBED"/>
<rect x="1132" y="219" width="9" height="9" fill="#F1D399"/>
<rect x="1132" y="253" width="9" height="9" fill="#D1DBED"/>
<rect x="1132" y="236" width="9" height="9" fill="#D1DBED"/>
<rect x="1132" y="270" width="9" height="9" fill="#F1D399"/>
<rect x="1132" y="287" width="9" height="9" fill="#D1DBED"/>
<rect x="1132" y="304" width="9" height="9" fill="#EEB8B8"/>
<rect x="1132" y="321" width="9" height="9" fill="#EEB8B8"/>
<rect x="86" y="243" width="1" height="126" fill="#5976D8"/>
<rect x="90" y="243" width="1" height="126" fill="#5976D8"/>
<path d="M94 243H95V369H94V243Z" fill="#5976D8"/>
<path d="M327 369V284L350 369H327Z" fill="#11266D"/>
<rect x="16" y="247" width="14" height="8" fill="#D1DBED"/>
<rect x="33" y="247" width="14" height="8" fill="#D1DBED"/>
<rect x="50" y="247" width="14" height="8" fill="#D1DBED"/>
<rect x="16" y="260" width="14" height="8" fill="#D1DBED"/>
<rect x="33" y="260" width="14" height="8" fill="#D1DBED"/>
<rect x="50" y="260" width="14" height="8" fill="#D1DBED"/>
<rect x="16" y="273" width="14" height="8" fill="#D1DBED"/>
<rect x="33" y="273" width="14" height="8" fill="#D1DBED"/>
<rect x="50" y="273" width="14" height="8" fill="#D1DBED"/>
<rect x="16" y="286" width="14" height="8" fill="#D1DBED"/>
<rect x="33" y="286" width="14" height="8" fill="#D1DBED"/>
<rect x="50" y="286" width="14" height="8" fill="#D1DBED"/>
<rect x="16" y="299" width="14" height="8" fill="#D1DBED"/>
<rect x="33" y="299" width="14" height="8" fill="#D1DBED"/>
<rect x="50" y="299" width="14" height="8" fill="#D1DBED"/>
<rect x="16" y="312" width="14" height="8" fill="#D1DBED"/>
<rect x="33" y="312" width="14" height="8" fill="#D1DBED"/>
<rect x="50" y="312" width="14" height="8" fill="#D1DBED"/>
<rect x="16" y="325" width="14" height="8" fill="#D1DBED"/>
<rect x="33" y="325" width="14" height="8" fill="#D1DBED"/>
<rect x="50" y="325" width="14" height="8" fill="#D1DBED"/>
<rect x="16" y="338" width="14" height="8" fill="#D1DBED"/>
<rect x="33" y="338" width="14" height="8" fill="#D1DBED"/>
<rect x="50" y="338" width="14" height="8" fill="#D1DBED"/>
<rect x="369" y="329" width="3" height="40" fill="#506DD0"/>
<rect x="374" y="329" width="3" height="40" fill="#506DD0"/>
<rect x="379" y="329" width="3" height="40" fill="#506DD0"/>
<rect x="384" y="329" width="3" height="40" fill="#506DD0"/>
<rect x="389" y="329" width="3" height="40" fill="#506DD0"/>
<path d="M994.823 251H1018.41H1042V269H985L994.823 251Z" fill="#4664CA"/>
<path d="M1161 318.166L1175 291L1189 317.897V369H1161V318.166Z" fill="#071C63"/>
<rect x="1091" y="318" width="70" height="51" fill="#183082"/>
<rect x="1112" y="331" width="28" height="2" fill="#506DD0"/>
<rect x="1112" y="335" width="28" height="2" fill="#506DD0"/>
<rect x="1112" y="339" width="28" height="2" fill="#506DD0"/>
<rect x="1112" y="343" width="28" height="2" fill="#506DD0"/>
<rect x="1112" y="347" width="28" height="2" fill="#506DD0"/>
<rect x="1189" y="212" width="77" height="157" fill="#4664CA"/>
<rect x="1266" y="212" width="22" height="157" fill="#183082"/>
<rect x="1306" y="290" width="23" height="78" fill="#183082"/>
<path d="M1266 318.876V290H1306V369H1266V318.876Z" fill="#4664CA"/>
<rect x="1204" y="241" width="9" height="9" fill="#D1DBED"/>
<rect x="1204" y="226" width="9" height="9" fill="#D1DBED"/>
<rect x="1204" y="256" width="9" height="9" fill="#D1DBED"/>
<rect x="1204" y="270" width="9" height="9" fill="#D1DBED"/>
<rect x="1204" y="285" width="9" height="9" fill="#D1DBED"/>
<rect x="1204" y="300" width="9" height="9" fill="#D1DBED"/>
<rect x="1217" y="241" width="9" height="9" fill="#D1DBED"/>
<rect x="1217" y="226" width="9" height="9" fill="#D1DBED"/>
<rect x="1217" y="256" width="9" height="9" fill="#D1DBED"/>
<rect x="1230" y="241" width="9" height="9" fill="#D1DBED"/>
<rect x="1217" y="285" width="9" height="9" fill="#D1DBED"/>
<rect x="1217" y="300" width="9" height="9" fill="#D1DBED"/>
<rect x="1217" y="270" width="9" height="9" fill="#D1DBED"/>
<rect x="1230" y="226" width="9" height="9" fill="#D1DBED"/>
<rect x="1230" y="256" width="9" height="9" fill="#D1DBED"/>
<rect x="1230" y="270" width="9" height="9" fill="#D1DBED"/>
<rect x="1230" y="285" width="9" height="9" fill="#D1DBED"/>
<rect x="1230" y="300" width="9" height="9" fill="#D1DBED"/>
<rect x="1243" y="241" width="9" height="9" fill="#D1DBED"/>
<rect x="1243" y="226" width="9" height="9" fill="#D1DBED"/>
<rect x="1243" y="256" width="9" height="9" fill="#D1DBED"/>
<rect x="1243" y="270" width="9" height="9" fill="#D1DBED"/>
<rect x="1243" y="285" width="9" height="9" fill="#D1DBED"/>
<rect x="1243" y="300" width="9" height="9" fill="#D1DBED"/>
<rect x="1256" y="300" width="9" height="9" fill="#D1DBED"/>
<rect x="1269" y="300" width="9" height="9" fill="#D1DBED"/>
<rect x="1282" y="300" width="9" height="9" fill="#D1DBED"/>
<rect x="1204" y="314" width="9" height="9" fill="#D1DBED"/>
<rect x="1217" y="314" width="9" height="9" fill="#D1DBED"/>
<rect x="1230" y="314" width="9" height="9" fill="#D1DBED"/>
<rect x="1243" y="314" width="9" height="9" fill="#D1DBED"/>
<rect x="1256" y="314" width="9" height="9" fill="#D1DBED"/>
<rect x="1269" y="314" width="9" height="9" fill="#D1DBED"/>
<rect x="1282" y="314" width="9" height="9" fill="#D1DBED"/>
<path d="M1329 290H1440V369H1329V290Z" fill="#4664CA"/>
<path d="M1365 259H1440V369H1365V259Z" fill="#4664CA"/>
<rect x="1337" y="297" width="95" height="5" fill="#D1DBED"/>
<rect x="1374" y="267" width="58" height="5" fill="#D1DBED"/>
<rect x="1374" y="277" width="58" height="5" fill="#D1DBED"/>
<rect x="1374" y="287" width="58" height="5" fill="#D1DBED"/>
<rect x="1337" y="307" width="95" height="6" fill="#D1DBED"/>
<rect x="1337" y="318" width="95" height="5" fill="#D1DBED"/>
<rect x="1337" y="328" width="95" height="5" fill="#D1DBED"/>
<path d="M927 323.779V316.969L944.367 290H976.911H1042V369H927V323.779Z" fill="#4664CA"/>
<path d="M958 291H1042V276.333V269H972.824L958 291Z" fill="#4664CA"/>
<rect x="1025" y="282" width="9" height="9" fill="#D1DBED"/>
<rect x="1025" y="310" width="9" height="9" fill="#D1DBED"/>
<rect x="1025" y="261" width="9" height="9" fill="#D1DBED"/>
<rect x="1013" y="282" width="9" height="9" fill="#D1DBED"/>
<rect x="1013" y="310" width="9" height="9" fill="#D1DBED"/>
<rect x="1013" y="261" width="9" height="9" fill="#D1DBED"/>
<rect x="1001" y="282" width="9" height="9" fill="#D1DBED"/>
<rect x="1001" y="310" width="9" height="9" fill="#D1DBED"/>
<rect x="1001" y="261" width="9" height="9" fill="#D1DBED"/>
<rect x="1001" y="282" width="9" height="9" fill="#D1DBED"/>
<rect x="989" y="282" width="9" height="9" fill="#D1DBED"/>
<rect x="977" y="282" width="9" height="9" fill="#D1DBED"/>
<rect x="1001" y="310" width="9" height="9" fill="#D1DBED"/>
<rect x="989" y="310" width="9" height="9" fill="#D1DBED"/>
<rect x="977" y="310" width="9" height="9" fill="#D1DBED"/>
<rect x="965" y="310" width="9" height="9" fill="#D1DBED"/>
<rect x="953" y="310" width="9" height="9" fill="#D1DBED"/>
<rect x="1001" y="261" width="9" height="9" fill="#D1DBED"/>
<path d="M1082 291H1175L1160.86 319H1082V291Z" fill="#4664CA"/>
<path d="M1091 310.322C1091 277.56 1069.06 251 1042 251L1042 369H1091L1091 310.322Z" fill="#183082"/>
<path d="M567.584 274H586.292H605V288H559L567.584 274Z" fill="#4664CA"/>
<path d="M702 327.941L713.5 306L725 327.724V369H702V327.941Z" fill="#071C63"/>
<rect x="645" y="328" width="57" height="41" fill="#183082"/>
<rect x="662" y="338" width="23" height="2" fill="#506DD0"/>
<rect x="662" y="342" width="23" height="2" fill="#506DD0"/>
<rect x="662" y="346" width="23" height="2" fill="#506DD0"/>
<rect x="662" y="350" width="23" height="2" fill="#506DD0"/>
<rect x="662" y="354" width="23" height="2" fill="#506DD0"/>
<rect x="725" y="242" width="61" height="127" fill="#4664CA"/>
<rect x="786" y="242" width="19" height="127" fill="#183082"/>
<path d="M819 305H837V369H819V305Z" fill="#183082"/>
<path d="M927 305H945V369H927V305Z" fill="#183082"/>
<path d="M786 328.393V305H819V369H786V328.393Z" fill="#4664CA"/>
<path d="M837 305H927V369H837V305Z" fill="#4664CA"/>
<path d="M518 332.366V326.848L531.138 305H555.759H605V369H518V332.366Z" fill="#4664CA"/>
<path d="M538 306H605V294V288H549.824L538 306Z" fill="#4664CA"/>
<path d="M638 306H713L701.596 329H638V306Z" fill="#4664CA"/>
<path d="M645 321.76C645 295.383 627.091 274 605 274L605 369H644.996L645 321.76Z" fill="#183082"/>
<rect x="442" y="272" width="59" height="97" fill="#4664CA"/>
<rect x="501" y="272" width="17" height="97" fill="#11266D"/>
<rect x="505" y="277" width="1" height="92" fill="#506DD0"/>
<rect x="509" y="277" width="1" height="92" fill="#506DD0"/>
<rect x="513" y="277" width="1" height="92" fill="#506DD0"/>
<rect x="454" y="281" width="10" height="4" fill="#D1DBED"/>
<rect x="454" y="289" width="10" height="4" fill="#D1DBED"/>
<rect x="454" y="297" width="10" height="4" fill="#D1DBED"/>
<rect x="454" y="305" width="10" height="4" fill="#D1DBED"/>
<rect x="454" y="313" width="10" height="4" fill="#D1DBED"/>
<rect x="454" y="321" width="10" height="4" fill="#D1DBED"/>
<rect x="454" y="329" width="10" height="4" fill="#D1DBED"/>
<rect x="454" y="337" width="10" height="4" fill="#D1DBED"/>
<rect x="467" y="281" width="10" height="4" fill="#D1DBED"/>
<rect x="467" y="289" width="10" height="4" fill="#D1DBED"/>
<rect x="467" y="297" width="10" height="4" fill="#D1DBED"/>
<rect x="467" y="305" width="10" height="4" fill="#D1DBED"/>
<rect x="467" y="313" width="10" height="4" fill="#D1DBED"/>
<rect x="467" y="321" width="10" height="4" fill="#D1DBED"/>
<rect x="467" y="329" width="10" height="4" fill="#D1DBED"/>
<rect x="467" y="337" width="10" height="4" fill="#D1DBED"/>
<rect x="480" y="281" width="10" height="4" fill="#D1DBED"/>
<rect x="480" y="289" width="10" height="4" fill="#D1DBED"/>
<rect x="480" y="297" width="10" height="4" fill="#D1DBED"/>
<rect x="480" y="305" width="10" height="4" fill="#D1DBED"/>
<rect x="480" y="313" width="10" height="4" fill="#D1DBED"/>
<rect x="480" y="321" width="10" height="4" fill="#D1DBED"/>
<rect x="480" y="329" width="10" height="4" fill="#D1DBED"/>
<rect x="480" y="337" width="10" height="4" fill="#D1DBED"/>
<rect x="536" y="321" width="66" height="3" fill="#D1DBED"/>
<rect x="551" y="300" width="51" height="3" fill="#D1DBED"/>
<rect x="569" y="283" width="33" height="3" fill="#D1DBED"/>
<rect x="737" y="264" width="7" height="7" fill="#F1D399"/>
<rect x="737" y="251" width="7" height="7" fill="#F1D399"/>
<rect x="737" y="277" width="7" height="7" fill="#D1DBED"/>
<rect x="737" y="290" width="7" height="7" fill="#D1DBED"/>
<rect x="737" y="303" width="7" height="7" fill="#D1DBED"/>
<rect x="737" y="316" width="7" height="7" fill="#D1DBED"/>
<rect x="747" y="264" width="7" height="7" fill="#D1DBED"/>
<rect x="747" y="251" width="7" height="7" fill="#D1DBED"/>
<rect x="747" y="277" width="7" height="7" fill="#D1DBED"/>
<rect x="757" y="264" width="7" height="7" fill="#D1DBED"/>
<rect x="747" y="303" width="7" height="7" fill="#D1DBED"/>
<rect x="747" y="316" width="7" height="7" fill="#D1DBED"/>
<rect x="747" y="290" width="7" height="7" fill="#F1D399"/>
<rect x="757" y="251" width="7" height="7" fill="#D1DBED"/>
<rect x="757" y="277" width="7" height="7" fill="#D1DBED"/>
<rect x="757" y="290" width="7" height="7" fill="#D1DBED"/>
<rect x="757" y="303" width="7" height="7" fill="#D1DBED"/>
<rect x="757" y="316" width="7" height="7" fill="#F1D399"/>
<rect x="767" y="264" width="7" height="7" fill="#D1DBED"/>
<rect x="767" y="251" width="7" height="7" fill="#D1DBED"/>
<rect x="767" y="277" width="7" height="7" fill="#F1D399"/>
<rect x="767" y="290" width="7" height="7" fill="#D1DBED"/>
<rect x="767" y="303" width="7" height="7" fill="#D1DBED"/>
<rect x="767" y="316" width="7" height="7" fill="#D1DBED"/>
<rect x="777" y="316" width="7" height="7" fill="#F1D399"/>
<rect x="787" y="316" width="7" height="7" fill="#D1DBED"/>
<rect x="797" y="316" width="7" height="7" fill="#D1DBED"/>
<rect x="737" y="329" width="7" height="7" fill="#F1D399"/>
<rect x="747" y="329" width="7" height="7" fill="#D1DBED"/>
<rect x="757" y="329" width="7" height="7" fill="#D1DBED"/>
<rect x="767" y="329" width="7" height="7" fill="#D1DBED"/>
<rect x="777" y="329" width="7" height="7" fill="#D1DBED"/>
<rect x="787" y="329" width="7" height="7" fill="#D1DBED"/>
<rect x="797" y="329" width="7" height="7" fill="#F1D399"/>
<rect x="842" y="319" width="80" height="3" fill="#D1DBED"/>
<rect x="842" y="327" width="80" height="3" fill="#D1DBED"/>
<rect x="842" y="335" width="80" height="3" fill="#D1DBED"/>
<rect x="842" y="343" width="80" height="3" fill="#D1DBED"/>
</svg>
