<svg width="160" height="44" viewBox="0 0 160 44" fill="none" xmlns="http://www.w3.org/2000/svg">
<g clip-path="url(#clip0)">
<path d="M12.2804 23.8384C12.6765 23.8384 13.0727 23.8384 13.4688 23.8384C13.719 23.8384 13.9901 23.7947 14.2403 23.751C15.1785 23.598 16.1168 23.4013 17.0133 23.008C17.7848 22.6583 18.4937 22.2212 19.0983 21.5874C19.8489 20.8007 20.2659 19.8391 20.4327 18.7245C20.5787 17.7848 20.4744 16.845 20.3076 15.9272C20.2034 15.3808 20.0574 14.8563 19.8698 14.3318C19.3902 12.9987 18.5771 11.9715 17.3886 11.2722C16.9091 10.9881 16.4087 10.7258 15.9291 10.4636C15.6164 10.2887 15.3036 10.1139 15.0326 9.87352C14.4696 9.39272 14.1777 8.7808 14.1569 8.03775C14.136 7.68809 14.136 7.31656 14.2403 6.96689C14.4905 6.02716 15.0534 5.41524 15.9291 5.17484C16.3253 5.06557 16.7214 5.04371 17.1384 5.06557C18.2435 5.13113 19.2026 5.59007 20.12 6.18014C20.954 6.70464 21.7046 7.36027 22.3509 8.12517C22.622 8.45299 22.8722 8.80265 23.1224 9.17418C24.0398 10.551 24.7904 12.0371 25.2908 13.6325C25.5619 14.4411 25.7495 15.2934 25.8746 16.1457C25.9789 16.845 26.0414 17.5444 25.9997 18.2656C25.9163 20.6258 25.2074 22.7457 23.7896 24.6033C22.7888 25.9146 21.5586 26.9199 20.1617 27.6848C18.8064 28.4278 17.3886 28.9086 15.8874 29.1927C14.97 29.3676 14.0526 29.4987 13.1144 29.5205C12.7808 29.5205 12.4263 29.5642 12.0927 29.5642C10.4247 29.5205 8.75672 29.3676 7.15127 28.8868C5.73347 28.4715 4.44076 27.8378 3.29401 26.8543C2.04301 25.7616 1.18816 24.4722 0.646056 22.9205C0.333306 22.0245 0.145655 21.1285 0.062255 20.1887C-0.0211451 19.4238 -0.0211451 18.6371 0.0205549 17.8722C0.062255 17.0854 0.187355 16.3205 0.333306 15.5556C0.687756 13.7854 1.27156 12.1027 2.08471 10.5073C2.81446 9.06491 3.71101 7.75365 4.85776 6.63908C5.33731 6.18014 5.85857 5.76491 6.42152 5.43709C6.90107 5.17484 7.42232 5.00001 7.96442 5.02186C9.44477 5.08742 10.2788 6.33312 10.2996 7.46954C10.2996 8.08146 10.1537 8.62782 9.86177 9.15232C9.65327 9.52385 9.40307 9.85166 9.13202 10.1576C7.94357 11.4033 7.00532 12.8676 6.29642 14.4848C5.90027 15.4027 5.58751 16.3424 5.39986 17.3477C5.27476 18.0907 5.23306 18.8338 5.31646 19.5768C5.48326 21.0848 6.21302 22.2431 7.52657 22.9642C8.13122 23.2921 8.77757 23.4887 9.44477 23.6199C9.92432 23.7073 10.4039 23.7947 10.9043 23.8384C11.3004 23.8821 11.6966 23.8603 12.0719 23.8603C12.1344 23.8603 12.2178 23.8603 12.2804 23.8384Z" fill="#11266D"/>
<path d="M7.36011 34.2413C7.40181 33.1048 7.92306 32.187 8.92386 31.575C9.42426 31.2691 9.94551 31.0505 10.5085 30.9631C11.6969 30.7883 12.7811 31.0287 13.636 32.0121C14.3032 32.7552 14.6368 33.6731 14.5742 34.6784C14.5325 35.7274 14.0947 36.5797 13.2607 37.1916C12.5518 37.7161 11.7595 38.0002 10.9255 37.9784C9.84126 37.9784 8.92386 37.5194 8.21496 36.6452C7.67286 35.9896 7.40181 35.2029 7.36011 34.2413Z" fill="#11266D"/>
</g>
<path d="M39.094 10.965C39.094 8.245 40.998 6.953 42.851 6.953C44.721 6.953 46.625 8.245 46.625 10.965C46.625 13.685 44.721 14.977 42.851 14.977C40.998 14.977 39.094 13.685 39.094 10.965ZM36.663 10.982C36.663 14.858 39.587 17.255 42.851 17.255C46.132 17.255 49.056 14.858 49.056 10.982C49.056 7.089 46.132 4.692 42.851 4.692C39.587 4.692 36.663 7.089 36.663 10.982ZM53.1809 17V12.104C53.1809 11.186 53.7589 10.455 54.7449 10.455C55.7649 10.455 56.2239 11.135 56.2239 12.036V17H58.4679V12.104C58.4679 11.203 59.0459 10.455 60.0149 10.455C61.0519 10.455 61.4939 11.135 61.4939 12.036V17H63.6869V11.577C63.6869 9.333 62.2079 8.398 60.6609 8.398C59.5559 8.398 58.6719 8.772 58.0089 9.792C57.5839 8.891 56.6659 8.398 55.5269 8.398C54.6089 8.398 53.5379 8.84 53.0789 9.656V8.636H50.9199V17H53.1809ZM68.2385 12.189C68.2385 11.22 68.8165 10.455 69.8025 10.455C70.8905 10.455 71.3495 11.186 71.3495 12.121V17H73.6105V11.73C73.6105 9.894 72.6585 8.415 70.5845 8.415C69.6835 8.415 68.6805 8.806 68.1705 9.673V8.636H65.9775V17H68.2385V12.189ZM78.1662 17V8.636H75.9052V17H78.1662ZM75.6332 5.899C75.6332 6.647 76.2622 7.276 77.0272 7.276C77.8092 7.276 78.4212 6.647 78.4212 5.899C78.4212 5.117 77.8092 4.488 77.0272 4.488C76.2622 4.488 75.6332 5.117 75.6332 5.899ZM84.3439 10.472C85.4659 10.472 85.9929 11.186 86.1969 11.883L88.2199 11.203C87.8629 9.792 86.5709 8.381 84.2929 8.381C81.8619 8.381 79.9579 10.234 79.9579 12.818C79.9579 15.385 81.8959 17.255 84.3609 17.255C86.5879 17.255 87.8969 15.827 88.2709 14.433L86.2819 13.77C86.0949 14.416 85.5169 15.181 84.3609 15.181C83.2049 15.181 82.2189 14.331 82.2189 12.818C82.2189 11.305 83.1879 10.472 84.3439 10.472ZM95.0336 8.602C94.8636 8.585 94.6936 8.568 94.5066 8.568C93.7926 8.568 92.6366 8.772 92.1266 9.877V8.636H89.9336V17H92.1946V13.175C92.1946 11.373 93.1976 10.812 94.3536 10.812C94.5576 10.812 94.7786 10.829 95.0336 10.88V8.602ZM98.19 11.866C98.241 11.101 98.887 10.217 100.06 10.217C101.352 10.217 101.896 11.033 101.93 11.866H98.19ZM102.151 14.042C101.879 14.79 101.301 15.317 100.247 15.317C99.125 15.317 98.19 14.518 98.139 13.413H104.123C104.123 13.379 104.157 13.039 104.157 12.716C104.157 10.03 102.61 8.381 100.026 8.381C97.884 8.381 95.912 10.115 95.912 12.784C95.912 15.606 97.935 17.255 100.23 17.255C102.287 17.255 103.613 16.048 104.038 14.603L102.151 14.042ZM105.427 14.722C105.427 16.031 106.515 17.238 108.3 17.238C109.541 17.238 110.34 16.66 110.765 15.997C110.765 16.32 110.799 16.779 110.85 17H112.924C112.873 16.711 112.822 16.116 112.822 15.674V11.56C112.822 9.877 111.836 8.381 109.184 8.381C106.94 8.381 105.733 9.826 105.597 11.135L107.603 11.56C107.671 10.829 108.215 10.2 109.201 10.2C110.153 10.2 110.612 10.693 110.612 11.288C110.612 11.577 110.459 11.815 109.983 11.883L107.926 12.189C106.532 12.393 105.427 13.226 105.427 14.722ZM108.776 15.555C108.045 15.555 107.688 15.079 107.688 14.586C107.688 13.94 108.147 13.617 108.725 13.532L110.612 13.243V13.617C110.612 15.096 109.728 15.555 108.776 15.555ZM117.84 6.137H115.8V7.31C115.8 8.058 115.392 8.636 114.508 8.636H114.083V10.642H115.596V14.535C115.596 16.15 116.616 17.119 118.248 17.119C118.911 17.119 119.319 17 119.523 16.915V15.045C119.404 15.079 119.098 15.113 118.826 15.113C118.18 15.113 117.84 14.875 117.84 14.144V10.642H119.523V8.636H117.84V6.137ZM123.704 17V8.636H121.443V17H123.704ZM121.171 5.899C121.171 6.647 121.8 7.276 122.565 7.276C123.347 7.276 123.959 6.647 123.959 5.899C123.959 5.117 123.347 4.488 122.565 4.488C121.8 4.488 121.171 5.117 121.171 5.899ZM134.013 8.636H131.633L129.644 14.246L127.57 8.636H125.088L128.505 17H130.766L134.013 8.636ZM138.897 15.198C137.792 15.198 136.772 14.382 136.772 12.818C136.772 11.237 137.792 10.438 138.897 10.438C140.002 10.438 141.022 11.237 141.022 12.818C141.022 14.399 140.002 15.198 138.897 15.198ZM138.897 8.381C136.398 8.381 134.511 10.234 134.511 12.818C134.511 15.385 136.398 17.255 138.897 17.255C141.396 17.255 143.283 15.385 143.283 12.818C143.283 10.234 141.396 8.381 138.897 8.381ZM150.167 8.602C149.997 8.585 149.827 8.568 149.64 8.568C148.926 8.568 147.77 8.772 147.26 9.877V8.636H145.067V17H147.328V13.175C147.328 11.373 148.331 10.812 149.487 10.812C149.691 10.812 149.912 10.829 150.167 10.88V8.602ZM151.298 14.722C151.298 16.031 152.386 17.238 154.171 17.238C155.412 17.238 156.211 16.66 156.636 15.997C156.636 16.32 156.67 16.779 156.721 17H158.795C158.744 16.711 158.693 16.116 158.693 15.674V11.56C158.693 9.877 157.707 8.381 155.055 8.381C152.811 8.381 151.604 9.826 151.468 11.135L153.474 11.56C153.542 10.829 154.086 10.2 155.072 10.2C156.024 10.2 156.483 10.693 156.483 11.288C156.483 11.577 156.33 11.815 155.854 11.883L153.797 12.189C152.403 12.393 151.298 13.226 151.298 14.722ZM154.647 15.555C153.916 15.555 153.559 15.079 153.559 14.586C153.559 13.94 154.018 13.617 154.596 13.532L156.483 13.243V13.617C156.483 15.096 155.599 15.555 154.647 15.555ZM45.486 28.82C45.214 27.46 44.092 25.692 41.168 25.692C38.89 25.692 36.969 27.324 36.969 29.466C36.969 31.285 38.21 32.526 40.131 32.917L41.814 33.257C42.749 33.444 43.276 33.988 43.276 34.685C43.276 35.535 42.579 36.164 41.321 36.164C39.621 36.164 38.788 35.093 38.686 33.903L36.51 34.481C36.697 36.198 38.108 38.255 41.304 38.255C44.109 38.255 45.656 36.385 45.656 34.532C45.656 32.832 44.483 31.404 42.29 30.979L40.607 30.656C39.723 30.486 39.298 29.959 39.298 29.296C39.298 28.497 40.046 27.766 41.185 27.766C42.715 27.766 43.259 28.803 43.378 29.466L45.486 28.82ZM50.3378 27.137H48.2978V28.31C48.2978 29.058 47.8898 29.636 47.0058 29.636H46.5808V31.642H48.0938V35.535C48.0938 37.15 49.1138 38.119 50.7458 38.119C51.4088 38.119 51.8168 38 52.0208 37.915V36.045C51.9018 36.079 51.5958 36.113 51.3238 36.113C50.6778 36.113 50.3378 35.875 50.3378 35.144V31.642H52.0208V29.636H50.3378V27.137ZM57.6154 36.198C56.5104 36.198 55.4904 35.382 55.4904 33.818C55.4904 32.237 56.5104 31.438 57.6154 31.438C58.7204 31.438 59.7404 32.237 59.7404 33.818C59.7404 35.399 58.7204 36.198 57.6154 36.198ZM57.6154 29.381C55.1164 29.381 53.2294 31.234 53.2294 33.818C53.2294 36.385 55.1164 38.255 57.6154 38.255C60.1144 38.255 62.0014 36.385 62.0014 33.818C62.0014 31.234 60.1144 29.381 57.6154 29.381ZM68.8861 29.602C68.7161 29.585 68.5461 29.568 68.3591 29.568C67.6451 29.568 66.4891 29.772 65.9791 30.877V29.636H63.7861V38H66.0471V34.175C66.0471 32.373 67.0501 31.812 68.2061 31.812C68.4101 31.812 68.6311 31.829 68.8861 31.88V29.602ZM72.0425 32.866C72.0935 32.101 72.7395 31.217 73.9125 31.217C75.2045 31.217 75.7485 32.033 75.7825 32.866H72.0425ZM76.0035 35.042C75.7315 35.79 75.1535 36.317 74.0995 36.317C72.9775 36.317 72.0425 35.518 71.9915 34.413H77.9755C77.9755 34.379 78.0095 34.039 78.0095 33.716C78.0095 31.03 76.4625 29.381 73.8785 29.381C71.7365 29.381 69.7645 31.115 69.7645 33.784C69.7645 36.606 71.7875 38.255 74.0825 38.255C76.1395 38.255 77.4655 37.048 77.8905 35.603L76.0035 35.042Z" fill="#11266D"/>
<defs>
<clipPath id="clip0">
<rect width="26" height="33" fill="white" transform="translate(0 5)"/>
</clipPath>
</defs>
</svg>
