<svg width="1440" height="141" viewBox="0 0 1440 141" fill="none" xmlns="http://www.w3.org/2000/svg">
<mask id="mask0" mask-type="alpha" maskUnits="userSpaceOnUse" x="0" y="0" width="1440" height="141">
<rect width="1440" height="141" fill="#C4C4C4"/>
</mask>
<g mask="url(#mask0)">
<path d="M1318 -10H1191V116H1318V-10Z" fill="#2BB7F4"/>
<path d="M1316 53C1281.21 53 1253 81.4299 1253 116.5H1316V53Z" fill="#11266D"/>
<path d="M1317.5 48C1285.19 48 1259 21.8087 1259 -10.5" stroke="#72E1A6" stroke-width="10"/>
<path d="M1317 32C1293.25 32 1274 12.9721 1274 -10.5" stroke="#72E1A6" stroke-width="10"/>
<path d="M1317 17C1302.09 17 1290 4.68783 1290 -10.5" stroke="#72E1A6" stroke-width="10"/>
<path d="M1318 0C1311.92 0 1307 -4.70101 1307 -10.5" stroke="#72E1A6" stroke-width="10"/>
<path d="M1139.6 52H1240.4C1247.36 52 1253 57.6924 1253 64.7143V141H1127V64.7143C1127 57.6924 1132.64 52 1139.6 52Z" fill="#353BCA"/>
<path d="M1191 141C1191 106.1 1161.99 81 1127 81V141H1191Z" fill="#4950FF"/>
<path d="M1191 52C1191 86.7939 1218.98 115 1253.5 115V52H1191Z" fill="#2BB7F4"/>
<path d="M1440.5 221C1510.92 221 1568 163.916 1568 93.5C1568 23.0837 1510.92 -34 1440.5 -34C1370.08 -34 1313 23.0837 1313 93.5C1313 163.916 1370.08 221 1440.5 221Z" fill="#222783"/>
<path fill-rule="evenodd" clip-rule="evenodd" d="M1347.64 94H1336.09V-34H1347.64V94ZM1416.91 94H1405.36V-34H1416.91V94ZM1324.55 94H1313V-34H1324.55V94ZM1393.82 94H1382.27V-34H1393.82V94ZM1370.73 94H1359.18V-34H1370.73V94ZM1440 94H1428.45V-34H1440V94Z" fill="#3FC57F"/>
<mask id="mask1" mask-type="alpha" maskUnits="userSpaceOnUse" x="1349" y="2" width="183" height="183">
<path d="M1440.5 184.571C1490.8 184.571 1531.57 143.797 1531.57 93.4999C1531.57 43.2025 1490.8 2.42847 1440.5 2.42847C1390.2 2.42847 1349.43 43.2025 1349.43 93.4999C1349.43 143.797 1390.2 184.571 1440.5 184.571Z" fill="#6E90FF"/>
</mask>
<g mask="url(#mask1)">
<path d="M1440.5 184.571C1490.8 184.571 1531.57 143.797 1531.57 93.4999C1531.57 43.2025 1490.8 2.42847 1440.5 2.42847C1390.2 2.42847 1349.43 43.2025 1349.43 93.4999C1349.43 143.797 1390.2 184.571 1440.5 184.571Z" fill="#6542F4"/>
</g>
<mask id="mask2" mask-type="alpha" maskUnits="userSpaceOnUse" x="1313" y="93" width="128" height="49">
<path d="M1440.5 93.5H1313V141.586H1440.5V93.5Z" fill="white"/>
</mask>
<g mask="url(#mask2)">
<path d="M1440.5 93.5H1313V141.586H1440.5V93.5Z" fill="#353BCA"/>
<path d="M1440.5 136.122C1464.04 136.122 1483.12 117.039 1483.12 93.5001C1483.12 69.9609 1464.04 50.8787 1440.5 50.8787C1416.96 50.8787 1397.88 69.9609 1397.88 93.5001C1397.88 117.039 1416.96 136.122 1440.5 136.122Z" stroke="#2BB7F4" stroke-width="10"/>
<path d="M1440.76 115.529C1452.23 115.529 1461.53 106.232 1461.53 94.7643C1461.53 83.2965 1452.23 74 1440.76 74C1429.3 74 1420 83.2965 1420 94.7643C1420 106.232 1429.3 115.529 1440.76 115.529Z" stroke="#2BB7F4" stroke-width="10"/>
<path d="M1439.5 100C1442.54 100 1445 97.5376 1445 94.5C1445 91.4624 1442.54 89 1439.5 89C1436.46 89 1434 91.4624 1434 94.5C1434 97.5376 1436.46 100 1439.5 100Z" fill="#2BB7F4"/>
</g>
<circle cx="594" cy="52" r="44" fill="#2BB7F4"/>
<circle cx="594" cy="52.0001" r="34.65" fill="#11266D"/>
<circle cx="594" cy="52" r="24.2" fill="#2BB7F4"/>
<circle cx="594" cy="52" r="14.3" fill="#11266D"/>
<path d="M593.895 52H811V141H511L593.895 52Z" fill="#2BB7F4"/>
<mask id="mask3" mask-type="alpha" maskUnits="userSpaceOnUse" x="511" y="52" width="300" height="89">
<path d="M593 52H810.5L727.5 141H511L593 52Z" fill="#2BB7F4"/>
</mask>
<g mask="url(#mask3)">
<circle cx="594" cy="52" r="44" fill="#11266D"/>
<circle cx="594" cy="52.0001" r="34.65" fill="#85D0EF"/>
<circle cx="594" cy="52" r="24.2" fill="#11266D"/>
<circle cx="594" cy="52" r="14.3" fill="#85D0EF"/>
</g>
<rect y="52" width="228" height="89" fill="#11266D"/>
<rect y="52" width="228" height="7" fill="#353BCA"/>
<rect y="70" width="228" height="7" fill="#353BCA"/>
<rect y="87" width="228" height="8" fill="#353BCA"/>
<rect y="106" width="228" height="7" fill="#353BCA"/>
<rect y="123" width="228" height="7" fill="#353BCA"/>
<path d="M317 141C317 91.8467 277.153 52 228 52V141H317Z" fill="#3FC57F"/>
<path d="M310 141C310 95.7127 273.287 59 228 59V141H310Z" fill="#11266D"/>
<path d="M301 141C301 101.788 268.317 70 228 70V141H301Z" fill="#3FC57F"/>
<path d="M292 141C292 105.654 263.346 77 228 77V141H292Z" fill="#11266D"/>
<path d="M282 141C282 111.177 257.823 87 228 87V141H282Z" fill="#3FC57F"/>
<path d="M274 141C274 115.595 253.405 95 228 95V141H274Z" fill="#11266D"/>
<rect x="811" y="131" width="316" height="10" fill="#11266D"/>
<rect x="811" y="112" width="316" height="10" fill="#11266D"/>
<rect x="811" y="91" width="316" height="10" fill="#11266D"/>
<rect x="811" y="71" width="316" height="10" fill="#11266D"/>
<rect x="811" y="52" width="316" height="10" fill="#11266D"/>
<path d="M811 52L728 141H811V52Z" fill="#222783"/>
<path d="M745.715 122H1127V132H736.397L745.715 122Z" fill="#6542F4"/>
<path d="M765.276 101H1127V111H756L765.276 101Z" fill="#6542F4"/>
<path d="M784 81H1126.61V91H774.646L784 81Z" fill="#6542F4"/>
<path d="M801.68 62H1126.61V72H792.336L801.68 62Z" fill="#6542F4"/>
<path d="M264 141C264 121.67 247.882 106 228 106V141H264Z" fill="#3FC57F"/>
<path d="M256 141C256 125.536 243.464 113 228 113V141H256Z" fill="#11266D"/>
<path d="M246 141C246 131.059 237.941 123 228 123V141H246Z" fill="#3FC57F"/>
<path d="M239 141C239 134.925 234.075 130 228 130V141H239Z" fill="#11266D"/>
<rect x="811" y="52" width="252" height="90" fill="#11266D" fill-opacity="0.3"/>
<path d="M811 52L989 141H811V52Z" fill="#3FC57F"/>
<path d="M511 52H386V141H511V52Z" fill="#11266D"/>
<mask id="mask4" mask-type="alpha" maskUnits="userSpaceOnUse" x="317" y="52" width="137" height="90">
<path d="M453.984 52.0061H317V141H453.984V52.0061Z" fill="white"/>
</mask>
<g mask="url(#mask4)">
<path d="M454 51H317V141H454V51Z" fill="#353BCA"/>
<path fill-rule="evenodd" clip-rule="evenodd" d="M317 52.0061H453.984L317 141V52.0061Z" fill="#4950FF"/>
<path d="M453.492 121.984C491.319 121.984 521.984 91.3195 521.984 53.4922C521.984 15.665 491.319 -15 453.492 -15C415.665 -15 385 15.665 385 53.4922C385 91.3195 415.665 121.984 453.492 121.984Z" fill="#2BB7F4"/>
</g>
<path d="M332.404 107.334C336.092 107.334 339.082 104.344 339.082 100.656C339.082 96.9679 336.092 93.978 332.404 93.978C328.715 93.978 325.726 96.9679 325.726 100.656C325.726 104.344 328.715 107.334 332.404 107.334Z" fill="#3FC57F"/>
<path d="M356.034 107.334C359.722 107.334 362.712 104.344 362.712 100.656C362.712 96.9679 359.722 93.978 356.034 93.978C352.346 93.978 349.356 96.9679 349.356 100.656C349.356 104.344 352.346 107.334 356.034 107.334Z" fill="#3FC57F"/>
<path d="M332.404 134.388C336.092 134.388 339.082 131.399 339.082 127.71C339.082 124.022 336.092 121.032 332.404 121.032C328.715 121.032 325.726 124.022 325.726 127.71C325.726 131.399 328.715 134.388 332.404 134.388Z" fill="#3FC57F"/>
<path d="M356.034 134.388C359.722 134.388 362.712 131.399 362.712 127.71C362.712 124.022 359.722 121.032 356.034 121.032C352.346 121.032 349.356 124.022 349.356 127.71C349.356 131.399 352.346 134.388 356.034 134.388Z" fill="#3FC57F"/>
<path d="M379.662 107.334C383.35 107.334 386.34 104.344 386.34 100.656C386.34 96.9679 383.35 93.978 379.662 93.978C375.974 93.978 372.984 96.9679 372.984 100.656C372.984 104.344 375.974 107.334 379.662 107.334Z" fill="#3FC57F"/>
<path d="M379.662 134.388C383.35 134.388 386.34 131.399 386.34 127.71C386.34 124.022 383.35 121.032 379.662 121.032C375.974 121.032 372.984 124.022 372.984 127.71C372.984 131.399 375.974 134.388 379.662 134.388Z" fill="#3FC57F"/>
<path fill-rule="evenodd" clip-rule="evenodd" d="M454 80.2V70.8H496V80.2H454ZM454 61.4V52H496V61.4H454ZM454 99V89.6H496V99H454Z" fill="#3FC57F"/>
<rect x="1127" y="52" width="13" height="11" fill="#3143A7"/>
<rect x="1152" y="-83" width="295" height="136" fill="#11266D"/>
<mask id="mask5" mask-type="alpha" maskUnits="userSpaceOnUse" x="1265" y="92" width="48" height="49">
<path d="M1265 140.612H1313V92.6121L1265 140.612Z" fill="white"/>
</mask>
<g mask="url(#mask5)">
<path fill-rule="evenodd" clip-rule="evenodd" d="M1325.72 126.212V119.012L1252.28 119.012V126.212L1325.72 126.212ZM1325.72 111.812V104.612L1252.28 104.612V111.812L1325.72 111.812ZM1325.72 97.4121V90.2121L1252.28 90.2121V97.4121L1325.72 97.4121ZM1325.72 141V133.412H1252.28V141H1325.72Z" fill="#353BCA"/>
</g>
</g>
</svg>
