<svg width="1440" height="297" viewBox="0 0 1440 297" fill="none" xmlns="http://www.w3.org/2000/svg">
<path fill-rule="evenodd" clip-rule="evenodd" d="M417.071 164.172V150.957H546.071V164.172H417.071ZM417.071 190.129V176.914H546.071V190.129H417.071ZM417.071 216.086V202.871H546.071V216.086H417.071ZM417.071 242.043V228.828H546.071V242.043H417.071ZM417.071 268V254.785H546.071V268H417.071Z" fill="#3FC57F"/>
<mask id="mask0" mask-type="alpha" maskUnits="userSpaceOnUse" x="213" y="125" width="205" height="143">
<path d="M213.357 125H396.7C407.951 125 417.071 134.146 417.071 145.429V268H213.357V125Z" fill="white"/>
</mask>
<g mask="url(#mask0)">
<path d="M213.357 125H396.7C407.951 125 417.071 134.146 417.071 145.429V268H213.357V125Z" fill="#4950FF"/>
<path d="M213.357 370.143C269.611 370.143 315.214 324.412 315.214 268C315.214 211.588 269.611 165.857 213.357 165.857C157.103 165.857 111.5 211.588 111.5 268C111.5 324.412 157.103 370.143 213.357 370.143Z" fill="#4950FF"/>
<path d="M498.557 84.1431H335.586C324.335 84.1431 315.214 93.2892 315.214 104.572V206.714C315.214 217.997 324.335 227.143 335.586 227.143H498.557C509.808 227.143 518.929 217.997 518.929 206.714V104.572C518.929 93.2892 509.808 84.1431 498.557 84.1431Z" fill="#2BB7F4"/>
<path d="M417.071 227.143C473.326 227.143 518.929 181.412 518.929 125C518.929 68.5878 473.326 22.8569 417.071 22.8569C360.817 22.8569 315.214 68.5878 315.214 125C315.214 181.412 360.817 227.143 417.071 227.143Z" fill="#2BB7F4"/>
<path d="M366.143 196.5C377.393 196.5 386.514 187.354 386.514 176.072C386.514 164.789 377.393 155.643 366.143 155.643C354.892 155.643 345.771 164.789 345.771 176.072C345.771 187.354 354.892 196.5 366.143 196.5Z" fill="#353BCA"/>
</g>
<path fill-rule="evenodd" clip-rule="evenodd" d="M812.071 214.116V205.218L546.071 205V214.116L812.071 214.116ZM812.071 232.02V222.904L546.071 222.904V232.02L812.071 232.02ZM812.071 250.01V240.894L546.071 240.894V250.01L812.071 250.01ZM812.071 268V258.884L546.071 258.884V268L812.071 268Z" fill="#3215A9"/>
<path fill-rule="evenodd" clip-rule="evenodd" d="M746.257 201.393L743.787 197.496C742.657 195.659 741.686 194.113 740.875 192.857C739.609 190.899 736.841 191.519 733.759 192.191C731.185 192.844 728.787 193.168 726.562 193.162C723.179 193.154 721.437 191.749 722.285 188.398C723.073 185.282 722.932 184.683 722.32 183.959C721.871 183.436 721.281 182.981 720.828 182.584C720.219 182.053 720.149 181.449 720.616 180.775L720.969 180.262C719.627 179.536 719.127 178.775 719.467 177.978C720.285 176.983 720.642 176.221 720.537 175.693C720.432 175.166 720.14 174.773 719.66 174.514C719.026 174.327 718.479 174.168 718.018 174.035C716.75 173.67 715.797 172.991 716.143 172.284L719.53 165.358C720.169 163.991 720.365 162.948 720.12 162.232L719.009 159.276L722.95 151.221C719.886 148.814 717.993 145.5 717.993 141.841C717.993 134.488 725.638 128.527 735.068 128.527C735.697 128.527 736.318 128.554 736.93 128.605L740.472 127.245C744.257 125.683 748.416 124.888 752.757 125.013C762.051 124.827 769.49 127.362 775.074 132.617C778.472 135.815 780.547 139.201 781.3 142.774C782.748 144.307 785.075 144.768 787.037 143.751L791.347 141.517C792.445 140.916 793.631 140.54 794.883 140.429C801.862 139.812 808.242 147.669 809.135 157.978C809.496 162.147 808.904 166.079 807.609 169.324L802.841 180.531C799.943 187.345 801.765 195.272 807.339 200.096C810.247 202.737 812.071 206.545 812.071 210.784C812.071 214.773 810.456 218.38 807.85 220.974L787.851 214.866L786.938 214.599C779.749 212.413 774.427 206.268 773.235 198.776C772.017 191.121 774.652 183.356 780.262 178.068L787.434 171.309C785.537 168.312 784.232 164.472 783.863 160.213C783.682 158.119 783.741 156.085 784.009 154.168L781.703 155.342C781.706 159.43 781.055 163.179 779.748 166.589C778.401 170.106 775.855 173.916 772.11 178.019L769.403 180.87C766.49 183.943 765.855 188.558 767.83 192.318L778.112 210.208C784.548 221.405 788.33 233.958 789.161 246.881C789.745 255.98 790.164 263.02 790.415 268H722.461C723.143 259.022 725.472 248.39 729.46 237.4C733.311 226.787 738.131 217.427 743.168 210.208L747.562 203.673L746.257 201.393Z" fill="#2BB7F4"/>
<mask id="mask1" mask-type="alpha" maskUnits="userSpaceOnUse" x="604" y="110" width="88" height="158">
<path d="M604.071 267.41C604.839 252.381 605.56 239.864 606.148 229.421C606.736 218.979 611.397 206.748 621.897 192.274L632.936 175.896C634.805 173.123 634.625 169.458 632.494 166.879C627.9 161.32 624.963 156.321 623.683 151.882C622.09 146.359 622.088 140.185 623.676 133.362C622.868 126.845 625.58 121.143 631.812 116.258C638.258 111.203 646.433 109.211 656.336 110.28C660.981 110.556 665.349 111.79 669.244 113.803L674.412 116.315C683.536 118.487 687.491 123.545 686.277 131.489C686.204 131.964 686.137 132.438 686.076 132.91C686 133.495 685.938 134.03 685.883 134.564C685.832 136.116 686.122 137.855 686.75 139.783C687.612 142.428 688.633 145.346 689.813 148.537L687.737 152.854C687.408 153.592 687.522 154.717 688.077 156.228L691.053 163.898C691.357 164.681 690.277 165.312 688.89 165.581C688.386 165.679 687.787 165.797 687.093 165.935C686.557 166.165 686.208 166.555 686.048 167.104C685.887 167.655 686.197 168.497 686.979 169.631C687.268 170.508 686.664 171.27 685.165 171.914L685.494 172.491C685.93 173.252 685.799 173.885 685.1 174.393C684.58 174.771 683.908 175.199 683.381 175.712C682.66 176.423 682.455 177.046 683.008 180.427C683.603 184.064 681.614 185.392 678.002 185.084C675.627 184.88 673.096 184.312 670.409 183.377C667.182 182.374 664.284 181.456 662.752 183.416C661.565 184.934 660.092 186.879 658.333 189.253L661.008 192.281C661.611 193.147 661.611 194.256 661.008 195.61C660.338 197.113 658.363 201.027 657.419 202.905C663.107 210.962 668.55 221.409 672.897 233.255C677.4 245.522 680.031 257.389 680.8 267.41H604.071Z" fill="#6542F4"/>
</mask>
<g mask="url(#mask1)">
<path d="M604.071 267.41C604.839 252.381 605.56 239.864 606.148 229.421C606.736 218.979 611.397 206.748 621.897 192.274L632.936 175.896C634.805 173.123 634.625 169.458 632.494 166.879C627.9 161.32 624.963 156.321 623.683 151.882C622.09 146.359 622.088 140.185 623.676 133.362C622.868 126.845 625.58 121.143 631.812 116.258C638.258 111.203 646.433 109.211 656.336 110.28C660.981 110.556 665.349 111.79 669.244 113.803L674.412 116.315C683.536 118.487 687.491 123.545 686.277 131.489C686.204 131.964 686.137 132.438 686.076 132.91C686 133.495 685.938 134.03 685.883 134.564C685.832 136.116 686.122 137.855 686.75 139.783C687.612 142.428 688.633 145.346 689.813 148.537L687.737 152.854C687.408 153.592 687.522 154.717 688.077 156.228L691.053 163.898C691.357 164.681 690.277 165.312 688.89 165.581C688.386 165.679 687.787 165.797 687.093 165.935C686.557 166.165 686.208 166.555 686.048 167.104C685.887 167.655 686.197 168.497 686.979 169.631C687.268 170.508 686.664 171.27 685.165 171.914L685.494 172.491C685.93 173.252 685.799 173.885 685.1 174.393C684.58 174.771 683.908 175.199 683.381 175.712C682.66 176.423 682.455 177.046 683.008 180.427C683.603 184.064 681.614 185.392 678.002 185.084C675.627 184.88 673.096 184.312 670.409 183.377C667.182 182.374 664.284 181.456 662.752 183.416C661.565 184.934 660.092 186.879 658.333 189.253L661.008 192.281C661.611 193.147 661.611 194.256 661.008 195.61C660.338 197.113 658.363 201.027 657.419 202.905C663.107 210.962 668.55 221.409 672.897 233.255C677.4 245.522 680.031 257.389 680.8 267.41H604.071Z" fill="#6542F4"/>
</g>
<path fill-rule="evenodd" clip-rule="evenodd" d="M1316.07 253.767L1311.33 268.321H1051.07V253.767H1316.07ZM1316.07 225.044L1311.33 239.599H1051.07V225.044L1316.07 225.044ZM1316.07 196.321L1311.33 210.876L1051.07 210.876V196.321L1316.07 196.321Z" fill="#353BCA"/>
<path d="M1439.66 75.7119H1246.53V268.838H1439.66V75.7119Z" fill="#3FC57F"/>
<mask id="mask2" mask-type="alpha" maskUnits="userSpaceOnUse" x="1296" y="26" width="144" height="144">
<path d="M1439.66 26H1296.6V169.056H1439.66V26Z" fill="white"/>
</mask>
<g mask="url(#mask2)">
<path d="M1368.13 169.056C1407.63 169.056 1439.66 137.032 1439.66 97.5282C1439.66 58.0243 1407.63 26 1368.13 26C1328.62 26 1296.6 58.0243 1296.6 97.5282C1296.6 137.032 1328.62 169.056 1368.13 169.056Z" fill="#353BCA"/>
</g>
<path d="M1439.66 127.927C1422.87 127.927 1409.26 114.317 1409.26 97.5279C1409.26 80.7387 1422.87 67.1284 1439.66 67.1284" stroke="#6542F4" stroke-width="30"/>
<path d="M1439.66 110.045C1432.74 110.045 1427.14 104.441 1427.14 97.5277C1427.14 90.6145 1432.74 85.0103 1439.66 85.0103" stroke="#6542F4" stroke-width="30"/>
<mask id="mask3" mask-type="alpha" maskUnits="userSpaceOnUse" x="1296" y="97" width="144" height="144">
<path d="M1439.66 97.1704H1296.6V240.227H1439.66V97.1704Z" fill="white"/>
</mask>
<g mask="url(#mask3)">
<path d="M1439.66 97.1704H1296.6V240.227H1439.66V97.1704Z" fill="#6542F4"/>
<path d="M1439.66 311.755C1479.16 311.755 1511.18 279.731 1511.18 240.227C1511.18 200.723 1479.16 168.699 1439.66 168.699C1400.15 168.699 1368.13 200.723 1368.13 240.227C1368.13 279.731 1400.15 311.755 1439.66 311.755Z" fill="#696EFF"/>
<path d="M1439.66 163.334C1476.2 163.334 1505.82 133.712 1505.82 97.1709C1505.82 60.6298 1476.2 31.0073 1439.66 31.0073C1403.11 31.0073 1373.49 60.6298 1373.49 97.1709C1373.49 133.712 1403.11 163.334 1439.66 163.334Z" stroke="#2BB7F4" stroke-width="30"/>
<path d="M1439.66 145.452C1466.32 145.452 1487.94 123.836 1487.94 97.1707C1487.94 70.5055 1466.32 48.8892 1439.66 48.8892C1412.99 48.8892 1391.37 70.5055 1391.37 97.1707C1391.37 123.836 1412.99 145.452 1439.66 145.452Z" stroke="#2BB7F4" stroke-width="30"/>
<path d="M1439.66 127.57C1456.45 127.57 1470.06 113.96 1470.06 97.1705C1470.06 80.3813 1456.45 66.771 1439.66 66.771C1422.87 66.771 1409.26 80.3813 1409.26 97.1705C1409.26 113.96 1422.87 127.57 1439.66 127.57Z" stroke="#2BB7F4" stroke-width="30"/>
<path d="M1439.66 109.688C1446.57 109.688 1452.17 104.084 1452.17 97.1708C1452.17 90.2576 1446.57 84.6533 1439.66 84.6533C1432.74 84.6533 1427.14 90.2576 1427.14 97.1708C1427.14 104.084 1432.74 109.688 1439.66 109.688Z" stroke="#2BB7F4" stroke-width="30"/>
</g>
<mask id="mask4" mask-type="alpha" maskUnits="userSpaceOnUse" x="1225" y="168" width="144" height="101">
<path d="M1239.38 168.699H1353.82C1361.72 168.699 1368.13 175.104 1368.13 183.004V268.838H1225.07V183.004C1225.07 175.104 1231.48 168.699 1239.38 168.699V168.699Z" fill="white"/>
</mask>
<g mask="url(#mask4)">
<path d="M1239.38 168.699H1353.82C1361.72 168.699 1368.13 175.104 1368.13 183.004V268.838H1225.07V183.004C1225.07 175.104 1231.48 168.699 1239.38 168.699V168.699Z" fill="#353BCA"/>
<path d="M1225.07 340.366C1264.58 340.366 1296.6 308.342 1296.6 268.838C1296.6 229.334 1264.58 197.31 1225.07 197.31C1185.57 197.31 1153.54 229.334 1153.54 268.838C1153.54 308.342 1185.57 340.366 1225.07 340.366Z" fill="#4950FF"/>
<path d="M1368.13 240.227C1407.63 240.227 1439.66 208.203 1439.66 168.699C1439.66 129.195 1407.63 97.1704 1368.13 97.1704C1328.62 97.1704 1296.6 129.195 1296.6 168.699C1296.6 208.203 1328.62 240.227 1368.13 240.227Z" fill="#2BB7F4"/>
</g>
<path d="M124.929 124.929C124.929 193.926 68.9967 249.858 0.000389099 249.858V0.000488281C68.9967 0.000488281 124.929 55.933 124.929 124.929Z" fill="#353BCA"/>
<path fill-rule="evenodd" clip-rule="evenodd" d="M90.8576 124.929H102.215L102.215 -9.91821e-05H90.8576L90.8576 124.929ZM22.7146 124.929H34.0717L34.0717 -9.91821e-05H22.7146L22.7146 124.929ZM113.572 124.929H124.929L124.929 -9.91821e-05H113.572L113.572 124.929ZM45.4289 124.929H56.7861L56.7861 -9.91821e-05H45.4289L45.4289 124.929ZM68.1432 124.929H79.5004L79.5004 -9.91821e-05H68.1432L68.1432 124.929ZM0.000244141 124.929H11.3574L11.3574 -9.91821e-05H0.000244141L0.000244141 124.929Z" fill="#3FC57F"/>
<path fill-rule="evenodd" clip-rule="evenodd" d="M879.98 268H891.344V132H879.98V268ZM811.799 268H823.162V132H811.799V268ZM902.708 268H914.071V132H902.708V268ZM834.526 268H845.889V132H834.526V268ZM857.253 268H868.617V132H857.253V268Z" fill="#6542F4"/>
<path d="M81.0715 124.751C81.0715 169.426 44.8547 205.643 0.178932 205.643V43.8579C44.8547 43.8579 81.0715 80.0748 81.0715 124.751Z" fill="#4950FF"/>
<path d="M0.0195694 152.245C14.9407 152.245 27.0367 140.149 27.0367 125.228C27.0367 110.306 14.9407 98.2104 0.0195694 98.2104" stroke="#2BB7F4" stroke-width="10"/>
<path d="M0.0200577 136.352C6.16407 136.352 11.1448 131.371 11.1448 125.227C11.1448 119.083 6.16407 114.103 0.0200577 114.103" stroke="#2BB7F4" stroke-width="10"/>
<mask id="mask5" mask-type="alpha" maskUnits="userSpaceOnUse" x="0" y="125" width="143" height="144">
<path d="M0.000106812 125.93H142.776V268.706H0.000106812V125.93Z" fill="white"/>
</mask>
<g mask="url(#mask5)">
<path d="M0.0712891 126H143.071V269H0.0712891V126Z" fill="#6542F4"/>
<path d="M0.000144958 340.094C-39.4263 340.094 -71.3877 308.132 -71.3877 268.706C-71.3877 229.279 -39.4263 197.318 0.000144958 197.318C39.4266 197.318 71.388 229.279 71.388 268.706C71.388 308.132 39.4266 340.094 0.000144958 340.094Z" fill="#696EFF"/>
<path d="M-0.000190735 191.964C-36.4696 191.964 -66.034 162.399 -66.034 125.93C-66.034 89.4603 -36.4696 59.896 -0.000190735 59.896C36.4693 59.896 66.0336 89.4603 66.0336 125.93C66.0336 162.399 36.4693 191.964 -0.000190735 191.964Z" stroke="#2BB7F4" stroke-width="30"/>
<path d="M0.000190735 174.117C-26.6127 174.117 -48.1866 152.543 -48.1866 125.93C-48.1866 99.3171 -26.6127 77.7432 0.000190735 77.7432C26.613 77.7432 48.187 99.3171 48.187 125.93C48.187 152.543 26.613 174.117 0.000190735 174.117Z" stroke="#2BB7F4" stroke-width="30"/>
<path d="M0.000114441 156.27C-16.7561 156.27 -30.3397 142.686 -30.3397 125.93C-30.3397 109.174 -16.7561 95.5903 0.000114441 95.5903C16.7564 95.5903 30.34 109.174 30.34 125.93C30.34 142.686 16.7564 156.27 0.000114441 156.27Z" stroke="#2BB7F4" stroke-width="30"/>
<path d="M0.000224113 138.423C-6.8994 138.423 -12.4927 132.83 -12.4927 125.93C-12.4927 119.03 -6.8994 113.437 0.000224113 113.437C6.89985 113.437 12.4931 119.03 12.4931 125.93C12.4931 132.83 6.89985 138.423 0.000224113 138.423Z" stroke="#2BB7F4" stroke-width="30"/>
</g>
<mask id="mask6" mask-type="alpha" maskUnits="userSpaceOnUse" x="71" y="196" width="144" height="101">
<path d="M71.3876 196.317H214.163V296.26H71.3876V196.317Z" fill="white"/>
</mask>
<g mask="url(#mask6)">
<path d="M71.3876 196.317H214.163V268H71.3876V196.317Z" fill="#353BCA"/>
<path fill-rule="evenodd" clip-rule="evenodd" d="M214.163 195.317H71.3876L214.163 268V195.317Z" fill="#4950FF"/>
<path d="M71.3876 267.705C31.9612 267.705 -0.000289917 235.744 -0.000289917 196.318C-0.000289917 156.891 31.9612 124.93 71.3876 124.93C110.814 124.93 142.775 156.891 142.775 196.318C142.775 235.744 110.814 267.705 71.3876 267.705Z" fill="#2BB7F4"/>
</g>
<path d="M214.164 236.634C210.221 236.634 207.025 233.437 207.025 229.495C207.025 225.552 210.221 222.356 214.164 222.356C218.106 222.356 221.302 225.552 221.302 229.495C221.302 233.437 218.106 236.634 214.164 236.634Z" fill="#3FC57F"/>
<path d="M239.149 236.634C235.207 236.634 232.011 233.437 232.011 229.495C232.011 225.552 235.207 222.356 239.149 222.356C243.092 222.356 246.288 225.552 246.288 229.495C246.288 233.437 243.092 236.634 239.149 236.634Z" fill="#3FC57F"/>
<path d="M189.178 236.634C185.235 236.634 182.039 233.437 182.039 229.495C182.039 225.552 185.235 222.356 189.178 222.356C193.12 222.356 196.317 225.552 196.317 229.495C196.317 233.437 193.12 236.634 189.178 236.634Z" fill="#3FC57F"/>
<path d="M214.164 264.832C210.221 264.832 207.025 261.636 207.025 257.693C207.025 253.75 210.221 250.554 214.164 250.554C218.106 250.554 221.302 253.75 221.302 257.693C221.302 261.636 218.106 264.832 214.164 264.832Z" fill="#3FC57F"/>
<path d="M239.149 264.832C235.207 264.832 232.011 261.636 232.011 257.693C232.011 253.75 235.207 250.554 239.149 250.554C243.092 250.554 246.288 253.75 246.288 257.693C246.288 261.636 243.092 264.832 239.149 264.832Z" fill="#3FC57F"/>
<path d="M189.178 264.832C185.235 264.832 182.039 261.636 182.039 257.693C182.039 253.75 185.235 250.554 189.178 250.554C193.12 250.554 196.317 253.75 196.317 257.693C196.317 261.636 193.12 264.832 189.178 264.832Z" fill="#3FC57F"/>
<mask id="mask7" mask-type="alpha" maskUnits="userSpaceOnUse" x="142" y="126" width="73" height="71">
<path d="M214.163 126H142.776V196.318L214.163 126Z" fill="white"/>
</mask>
<g mask="url(#mask7)">
<path fill-rule="evenodd" clip-rule="evenodd" d="M123.858 147.095V157.643L233.081 157.643V147.095L123.858 147.095ZM123.858 168.191V178.739L233.081 178.739V168.191L123.858 168.191ZM123.858 189.286V199.834H233.081V189.286L123.858 189.286ZM123.858 126V136.548L233.081 136.548V126L123.858 126Z" fill="#353BCA"/>
</g>
<path fill-rule="evenodd" clip-rule="evenodd" d="M1137.87 47V151.606L1123.11 151.654C1124.9 178.492 1126.57 192.14 1128.12 192.599L1063.47 188.323L1137.87 268.357H1224.89V195.767V151.606V47H1205.36V151.606H1191.08V47H1172.81V151.606H1156.82V47H1137.87Z" fill="#3FC57F"/>
<path d="M1063.07 160.298C1063.07 179.793 1078.87 195.596 1098.37 195.596C1117.86 195.596 1133.67 179.793 1133.67 160.298C1133.67 140.804 1117.86 125 1098.37 125C1084.16 125 1071.91 133.399 1066.31 145.504" stroke="#353BCA" stroke-width="19"/>
<path d="M1051.07 132H914.071V268H1051.07V132Z" fill="#6542F4"/>
<path d="M1051.01 196.5C1013.15 196.5 982.466 230.146 982.466 268H1051.01V196.5Z" fill="#696EFF"/>
<path d="M914.071 200.5C951.925 200.5 984.652 169.854 984.652 132H914.071V200.5Z" fill="#353BCA"/>
<path d="M914.071 200C875.993 200 843.071 169.577 843.071 132H914.071V200Z" fill="#2BB7F4"/>
<path d="M1051.07 195C1016 195 988.071 166.57 988.071 131.5" stroke="#3FC57F" stroke-width="9"/>
<path d="M1051.07 178C1025.39 178 1005.07 157.181 1005.07 131.5" stroke="#3FC57F" stroke-width="9"/>
<path d="M1051.07 161C1034.78 161 1022.07 148.292 1022.07 132" stroke="#3FC57F" stroke-width="9"/>
<path d="M1051.07 144C1044.44 144 1039.07 138.904 1039.07 132" stroke="#3FC57F" stroke-width="9"/>
<path fill-rule="evenodd" clip-rule="evenodd" d="M485.071 268H417.071V172L485.071 196.585V268Z" fill="#2BB7F4"/>
<path fill-rule="evenodd" clip-rule="evenodd" d="M584.071 205H546.071V151L584.071 164.829V205Z" fill="#6542F4"/>
</svg>
